<svg width="37" height="37" viewBox="0 0 37 37" fill="none" xmlns="http://www.w3.org/2000/svg">
<g id="arrows-spin-solid 1">
<path id="Vector" d="M18.5 6.9375C21.275 6.9375 23.826 7.91309 25.8205 9.54629L23.4646 11.9021C23.1322 12.2346 23.0383 12.7332 23.2117 13.1596C23.3852 13.5859 23.8115 13.875 24.2812 13.875H32.375C33.0109 13.875 33.5312 13.3547 33.5312 12.7188V4.625C33.5312 4.15527 33.2494 3.73613 32.8158 3.55547C32.3822 3.3748 31.8836 3.47598 31.5584 3.8084L29.1014 6.26543C26.2613 3.80117 22.5541 2.3125 18.5 2.3125C17.7123 2.3125 16.9463 2.37031 16.1875 2.47871V7.16875C16.9318 7.01699 17.7051 6.9375 18.5 6.9375ZM9.54629 11.1795L11.9021 13.5354C12.2346 13.8678 12.7332 13.9617 13.1596 13.7883C13.5859 13.6148 13.875 13.1885 13.875 12.7188V4.625C13.875 3.98906 13.3547 3.46875 12.7188 3.46875H4.625C4.15527 3.46875 3.73613 3.75059 3.55547 4.18418C3.3748 4.61777 3.47598 5.11641 3.8084 5.4416L6.26543 7.89863C3.80117 10.7387 2.3125 14.4459 2.3125 18.5C2.3125 19.2877 2.37031 20.0537 2.47871 20.8125H7.16875C7.01699 20.0682 6.9375 19.2949 6.9375 18.5C6.9375 15.725 7.91309 13.174 9.54629 11.1795ZM34.5213 16.1875H29.8312C29.983 16.9318 30.0625 17.7051 30.0625 18.5C30.0625 21.275 29.0869 23.826 27.4537 25.8205L25.0979 23.4646C24.7654 23.1322 24.2668 23.0383 23.8404 23.2117C23.4141 23.3852 23.125 23.8115 23.125 24.2812V32.375C23.125 33.0109 23.6453 33.5312 24.2812 33.5312H32.375C32.8447 33.5312 33.2639 33.2494 33.4445 32.8158C33.6252 32.3822 33.524 31.8836 33.1916 31.5584L30.7346 29.1014C33.1988 26.2613 34.6875 22.5541 34.6875 18.5C34.6875 17.7123 34.6297 16.9463 34.5213 16.1875ZM18.5 30.0625C15.725 30.0625 13.174 29.0869 11.1795 27.4537L13.5354 25.0979C13.8678 24.7654 13.9617 24.2668 13.7883 23.8404C13.6148 23.4141 13.1885 23.125 12.7188 23.125H4.625C3.98906 23.125 3.46875 23.6453 3.46875 24.2812V32.375C3.46875 32.8447 3.75059 33.2639 4.18418 33.4445C4.61777 33.6252 5.11641 33.524 5.4416 33.1916L7.89863 30.7346C10.7387 33.1988 14.4459 34.6875 18.5 34.6875C19.2877 34.6875 20.0537 34.6297 20.8125 34.5213V29.8312C20.0682 29.983 19.2949 30.0625 18.5 30.0625Z" fill="black" fill-opacity="0.5"/>
</g>
</svg>
