<svg width="36" height="32" viewBox="0 0 36 32" fill="none" xmlns="http://www.w3.org/2000/svg">
<g id="circle-question-solid 1" clip-path="url(#clip0_2167_30)">
<path id="Vector" d="M18 32C22.7739 32 27.3523 30.3143 30.7279 27.3137C34.1036 24.3131 36 20.2435 36 16C36 11.7565 34.1036 7.68687 30.7279 4.68629C27.3523 1.68571 22.7739 0 18 0C13.2261 0 8.64773 1.68571 5.27208 4.68629C1.89642 7.68687 0 11.7565 0 16C0 20.2435 1.89642 24.3131 5.27208 27.3137C8.64773 30.3143 13.2261 32 18 32ZM11.9391 10.3313C12.4945 8.9375 13.9852 8 15.6516 8H19.7508C22.2047 8 24.1875 9.76875 24.1875 11.9438C24.1875 13.3563 23.3367 14.6625 21.9586 15.3687L19.6875 16.525C19.6734 17.3375 18.9211 18 18 18C17.0648 18 16.3125 17.3312 16.3125 16.5V15.6562C16.3125 15.1187 16.6359 14.625 17.1633 14.3562L20.2781 12.7688C20.6086 12.6 20.8125 12.2875 20.8125 11.95C20.8125 11.425 20.3344 11.0063 19.7508 11.0063H15.6516C15.4125 11.0063 15.2016 11.1375 15.1242 11.3375L15.0961 11.4125C14.7867 12.1938 13.8164 12.6 12.9445 12.325C12.0727 12.05 11.6086 11.1875 11.918 10.4125L11.9461 10.3375L11.9391 10.3313ZM15.75 22C15.75 21.4696 15.9871 20.9609 16.409 20.5858C16.831 20.2107 17.4033 20 18 20C18.5967 20 19.169 20.2107 19.591 20.5858C20.0129 20.9609 20.25 21.4696 20.25 22C20.25 22.5304 20.0129 23.0391 19.591 23.4142C19.169 23.7893 18.5967 24 18 24C17.4033 24 16.831 23.7893 16.409 23.4142C15.9871 23.0391 15.75 22.5304 15.75 22Z" fill="black" fill-opacity="0.65"/>
</g>
<defs>
<clipPath id="clip0_2167_30">
<rect width="36" height="32" fill="white"/>
</clipPath>
</defs>
</svg>
