<svg width="21" height="21" viewBox="0 0 21 21" fill="none" xmlns="http://www.w3.org/2000/svg">
<g id="trash-can-regular 1" clip-path="url(#clip0_2164_687)">
<path id="Vector" d="M7.99219 2.11641L7.10156 3.28125H13.8984L13.0078 2.11641C12.9375 2.02617 12.8203 1.96875 12.6937 1.96875H8.30156C8.175 1.96875 8.05781 2.02207 7.9875 2.11641H7.99219ZM14.8828 1.02539L16.6031 3.28125H17.25H19.5H19.875C20.4984 3.28125 21 3.72012 21 4.26562C21 4.81113 20.4984 5.25 19.875 5.25H19.5V17.7188C19.5 19.5316 17.8219 21 15.75 21H5.25C3.17812 21 1.5 19.5316 1.5 17.7188V5.25H1.125C0.501562 5.25 0 4.81113 0 4.26562C0 3.72012 0.501562 3.28125 1.125 3.28125H1.5H3.75H4.39688L6.11719 1.02129C6.60469 0.385547 7.425 0 8.30156 0H12.6937C13.5703 0 14.3906 0.385547 14.8781 1.02129L14.8828 1.02539ZM3.75 5.25V17.7188C3.75 18.4447 4.42031 19.0312 5.25 19.0312H15.75C16.5797 19.0312 17.25 18.4447 17.25 17.7188V5.25H3.75ZM7.5 7.875V16.4062C7.5 16.7672 7.1625 17.0625 6.75 17.0625C6.3375 17.0625 6 16.7672 6 16.4062V7.875C6 7.51406 6.3375 7.21875 6.75 7.21875C7.1625 7.21875 7.5 7.51406 7.5 7.875ZM11.25 7.875V16.4062C11.25 16.7672 10.9125 17.0625 10.5 17.0625C10.0875 17.0625 9.75 16.7672 9.75 16.4062V7.875C9.75 7.51406 10.0875 7.21875 10.5 7.21875C10.9125 7.21875 11.25 7.51406 11.25 7.875ZM15 7.875V16.4062C15 16.7672 14.6625 17.0625 14.25 17.0625C13.8375 17.0625 13.5 16.7672 13.5 16.4062V7.875C13.5 7.51406 13.8375 7.21875 14.25 7.21875C14.6625 7.21875 15 7.51406 15 7.875Z" fill="black"/>
</g>
<defs>
<clipPath id="clip0_2164_687">
<rect width="21" height="21" fill="white"/>
</clipPath>
</defs>
</svg>
