<svg width="36" height="32" viewBox="0 0 36 32" fill="none" xmlns="http://www.w3.org/2000/svg">
<path id="Vector" d="M36 5V8C36 10.7625 27.9402 13 18 13C8.05982 13 0 10.7625 0 8V5C0 2.2375 8.05982 0 18 0C27.9402 0 36 2.2375 36 5ZM31.5964 13.4187C33.2679 12.9563 34.8027 12.3625 36 11.6313V18C36 20.7625 27.9402 23 18 23C8.05982 23 0 20.7625 0 18V11.6313C1.19732 12.3688 2.73214 12.9563 4.40357 13.4187C8.01161 14.4187 12.817 15 18 15C23.183 15 27.9884 14.4187 31.5964 13.4187ZM0 21.6313C1.19732 22.3687 2.73214 22.9563 4.40357 23.4188C8.01161 24.4188 12.817 25 18 25C23.183 25 27.9884 24.4188 31.5964 23.4188C33.2679 22.9563 34.8027 22.3625 36 21.6313V27C36 29.7625 27.9402 32 18 32C8.05982 32 0 29.7625 0 27V21.6313Z" fill="black" fill-opacity="0.5"/>
</svg>
