<svg width="48" height="44" viewBox="0 0 48 44" fill="none" xmlns="http://www.w3.org/2000/svg">
<g id="mdi:camera-outline" opacity="0.5">
<path id="Vector" d="M40 7.33317H33.66L30 3.6665H18L14.34 7.33317H8C6.93913 7.33317 5.92172 7.71948 5.17157 8.40711C4.42143 9.09475 4 10.0274 4 10.9998V32.9998C4 33.9723 4.42143 34.9049 5.17157 35.5926C5.92172 36.2802 6.93913 36.6665 8 36.6665H40C41.0609 36.6665 42.0783 36.2802 42.8284 35.5926C43.5786 34.9049 44 33.9723 44 32.9998V10.9998C44 10.0274 43.5786 9.09475 42.8284 8.40711C42.0783 7.71948 41.0609 7.33317 40 7.33317ZM40 32.9998H8V10.9998H16.1L19.76 7.33317H28.24L31.9 10.9998H40V32.9998ZM24 12.8332C21.3478 12.8332 18.8043 13.7989 16.9289 15.518C15.0536 17.2371 14 19.5687 14 21.9998C14 24.431 15.0536 26.7626 16.9289 28.4816C18.8043 30.2007 21.3478 31.1665 24 31.1665C26.6522 31.1665 29.1957 30.2007 31.0711 28.4816C32.9464 26.7626 34 24.431 34 21.9998C34 19.5687 32.9464 17.2371 31.0711 15.518C29.1957 13.7989 26.6522 12.8332 24 12.8332ZM24 27.4998C22.4087 27.4998 20.8826 26.9204 19.7574 25.8889C18.6321 24.8575 18 23.4585 18 21.9998C18 20.5411 18.6321 19.1422 19.7574 18.1107C20.8826 17.0793 22.4087 16.4998 24 16.4998C25.5913 16.4998 27.1174 17.0793 28.2426 18.1107C29.3679 19.1422 30 20.5411 30 21.9998C30 23.4585 29.3679 24.8575 28.2426 25.8889C27.1174 26.9204 25.5913 27.4998 24 27.4998Z" fill="black"/>
</g>
</svg>
