<svg width="38" height="38" viewBox="0 0 38 38" fill="none" xmlns="http://www.w3.org/2000/svg">
<g id="newspaper-solid 1">
<path id="Vector" d="M7.125 7.125C7.125 4.50508 9.25508 2.375 11.875 2.375H33.25C35.8699 2.375 38 4.50508 38 7.125V30.875C38 33.4949 35.8699 35.625 33.25 35.625H5.9375C2.65703 35.625 0 32.968 0 29.6875V9.5C0 8.18633 1.06133 7.125 2.375 7.125C3.68867 7.125 4.75 8.18633 4.75 9.5V29.6875C4.75 30.3406 5.28438 30.875 5.9375 30.875C6.59062 30.875 7.125 30.3406 7.125 29.6875V7.125ZM11.875 8.90625V14.8438C11.875 15.8309 12.6691 16.625 13.6562 16.625H21.9688C22.9559 16.625 23.75 15.8309 23.75 14.8438V8.90625C23.75 7.91914 22.9559 7.125 21.9688 7.125H13.6562C12.6691 7.125 11.875 7.91914 11.875 8.90625ZM27.3125 8.3125C27.3125 8.96562 27.8469 9.5 28.5 9.5H32.0625C32.7156 9.5 33.25 8.96562 33.25 8.3125C33.25 7.65938 32.7156 7.125 32.0625 7.125H28.5C27.8469 7.125 27.3125 7.65938 27.3125 8.3125ZM27.3125 15.4375C27.3125 16.0906 27.8469 16.625 28.5 16.625H32.0625C32.7156 16.625 33.25 16.0906 33.25 15.4375C33.25 14.7844 32.7156 14.25 32.0625 14.25H28.5C27.8469 14.25 27.3125 14.7844 27.3125 15.4375ZM11.875 22.5625C11.875 23.2156 12.4094 23.75 13.0625 23.75H32.0625C32.7156 23.75 33.25 23.2156 33.25 22.5625C33.25 21.9094 32.7156 21.375 32.0625 21.375H13.0625C12.4094 21.375 11.875 21.9094 11.875 22.5625ZM11.875 29.6875C11.875 30.3406 12.4094 30.875 13.0625 30.875H32.0625C32.7156 30.875 33.25 30.3406 33.25 29.6875C33.25 29.0344 32.7156 28.5 32.0625 28.5H13.0625C12.4094 28.5 11.875 29.0344 11.875 29.6875Z" fill="black"/>
</g>
</svg>
