<svg width="33" height="39" viewBox="0 0 33 39" fill="none" xmlns="http://www.w3.org/2000/svg">
<g id="Group">
<path id="Vector" d="M16.4996 25.05V1M16.4996 1L21.1496 7.475M16.4996 1L11.8496 7.475" stroke="black" stroke-width="1.5" stroke-linecap="round" stroke-linejoin="round"/>
<path id="Vector_2" d="M10.3 37.9999H22.7C27.0834 37.9999 29.2766 37.9999 30.6375 36.3756C32 34.7476 32 32.1336 32 26.8999V25.0499C32 19.8181 32 17.2022 30.6375 15.5761C29.4471 14.1553 27.6212 13.9758 24.25 13.9536M8.75 13.9536C5.37875 13.9758 3.55285 14.1553 2.36245 15.5761C1 17.2022 1 19.8181 1 25.0499V26.8999C1 32.1336 1 34.7495 2.36245 36.3756C2.82745 36.9306 3.38855 37.2951 4.1 37.5356" stroke="black" stroke-width="1.5" stroke-linecap="round"/>
</g>
</svg>
