<svg width="36" height="32" viewBox="0 0 36 32" fill="none" xmlns="http://www.w3.org/2000/svg">
<rect width="36" height="32" fill="#E5E5E5"/>
<g id="Halaman Report" clip-path="url(#clip0_0_1)">
<rect width="1920" height="1080" transform="translate(-52 -328)" fill="#F5F5F5"/>
<path id="Rectangle 4" d="M-52 -323C-52 -325.761 -49.7614 -328 -47 -328H274V752H-52V-323Z" fill="#9BDBE3"/>
<rect id="Rectangle 13" x="-52" y="-159" width="326" height="931" rx="2" fill="white"/>
<g id="Group 20">
<path id="Vector" d="M12.8571 3.42857C12.8571 1.53571 14.5848 0 16.7143 0H19.2857C21.4152 0 23.1429 1.53571 23.1429 3.42857V28.5714C23.1429 30.4643 21.4152 32 19.2857 32H16.7143C14.5848 32 12.8571 30.4643 12.8571 28.5714V3.42857ZM0 17.1429C0 15.25 1.72768 13.7143 3.85714 13.7143H6.42857C8.55804 13.7143 10.2857 15.25 10.2857 17.1429V28.5714C10.2857 30.4643 8.55804 32 6.42857 32H3.85714C1.72768 32 0 30.4643 0 28.5714V17.1429ZM29.5714 4.57143H32.1429C34.2723 4.57143 36 6.10714 36 8V28.5714C36 30.4643 34.2723 32 32.1429 32H29.5714C27.442 32 25.7143 30.4643 25.7143 28.5714V8C25.7143 6.10714 27.442 4.57143 29.5714 4.57143Z" fill="black" fill-opacity="0.5"/>
</g>
<path id="Rectangle 14" d="M-52 -323C-52 -325.761 -49.7614 -328 -47 -328H274V752H-52V-323Z" fill="#9BDBE3"/>
<rect id="Rectangle 16" x="-52" y="-159" width="326" height="931" rx="2" fill="white"/>
<g id="Group 32">
<path id="Vector_2" d="M12.8571 3.42857C12.8571 1.53571 14.5848 0 16.7143 0H19.2857C21.4152 0 23.1429 1.53571 23.1429 3.42857V28.5714C23.1429 30.4643 21.4152 32 19.2857 32H16.7143C14.5848 32 12.8571 30.4643 12.8571 28.5714V3.42857ZM0 17.1429C0 15.25 1.72768 13.7143 3.85714 13.7143H6.42857C8.55804 13.7143 10.2857 15.25 10.2857 17.1429V28.5714C10.2857 30.4643 8.55804 32 6.42857 32H3.85714C1.72768 32 0 30.4643 0 28.5714V17.1429ZM29.5714 4.57143H32.1429C34.2723 4.57143 36 6.10714 36 8V28.5714C36 30.4643 34.2723 32 32.1429 32H29.5714C27.442 32 25.7143 30.4643 25.7143 28.5714V8C25.7143 6.10714 27.442 4.57143 29.5714 4.57143Z" fill="black"/>
</g>
</g>
<defs>
<clipPath id="clip0_0_1">
<rect width="1920" height="1080" fill="white" transform="translate(-52 -328)"/>
</clipPath>
</defs>
</svg>
